<?xml version="1.0" encoding="UTF-8"?>
<!DOCTYPE svg PUBLIC "-//W3C//DTD SVG 1.1//EN" "http://www.w3.org/Graphics/SVG/1.1/DTD/svg11.dtd">
<svg version="1.1" id="Layer_1" xmlns="http://www.w3.org/2000/svg" xmlns:xlink="http://www.w3.org/1999/xlink" x="0px" y="0px" width="226.777px" height="226.777px" viewBox="0 0 226.777 226.777" enable-background="new 0 0 226.777 226.777" xml:space="preserve">
<g id="Layer_4">
</g>
<path fill="grey" d="M179.006,23.594H48.479l-38.403,81.434l103.634,100.626l103.697-100.626L179.006,23.594z M141.382,152.624  c-4.756,4.806-11.304,7.835-19.477,9.015v13.731h-15.09v-13.712c-8.351-1.141-15.086-4.448-20.033-9.84  c-5.359-5.841-8.076-13.801-8.076-23.658v-2.305h17.712v2.305c0,5.88,1.518,10.413,4.511,13.474  c2.979,3.048,7.354,4.593,13.007,4.593c5.599,0,10.009-1.313,13.107-3.904c3.017-2.522,4.483-5.909,4.483-10.354  c0-3.708-1.267-6.741-3.87-9.274c-2.778-2.702-7.663-5.226-14.518-7.499c-10.349-3.144-18.08-7.373-22.941-12.56  c-4.994-5.329-7.526-12.157-7.526-20.293c0-8.267,2.479-15.17,7.366-20.519c4.467-4.891,10.513-8.001,17.982-9.254V36.822h15.162  v15.853c7.564,1.429,13.621,4.945,18.015,10.464c4.727,5.938,7.122,14.083,7.122,24.206v2.306h-17.641v-2.306  c0-6.074-1.424-10.916-4.232-14.391c-2.726-3.374-6.331-5.013-11.021-5.013c-4.969,0-8.763,1.241-11.279,3.689  c-2.496,2.432-3.762,5.951-3.762,10.459c0,4.159,1.292,7.354,3.952,9.768c2.878,2.612,7.812,5.062,14.667,7.282  c7.381,2.39,13.253,5.077,17.454,7.986c4.331,3.002,7.58,6.569,9.658,10.604c2.073,4.029,3.123,8.772,3.122,14.099  C149.235,140.362,146.594,147.359,141.382,152.624z"/>
</svg>